<svg width="29" height="16" viewBox="0 0 29 16" fill="none" xmlns="http://www.w3.org/2000/svg">
<rect width="29" height="16" fill="#F5F5F5"/>
<g id="User administration">
<rect x="-261" y="-118" width="1440" height="1525" rx="7" fill="#FAFAFA"/>
<g id="Left navigation">
<g id="Frame 152">
<g id="Frame 111">
<rect x="-244.5" y="-11.5" width="287" height="39" rx="5.5" fill="white"/>
<rect x="-244.5" y="-11.5" width="287" height="39" rx="5.5" stroke="#989898"/>
<g id="Frame 110">
<rect x="-6" y="-4" width="41" height="24" rx="4" fill="black" fill-opacity="0.04"/>
<g id="arrow-block-up">
<path id="Icon" d="M4.2 13C4.01332 13 3.91997 13 3.84867 12.9637C3.78595 12.9317 3.73496 12.8807 3.703 12.818C3.66667 12.7467 3.66667 12.6534 3.66667 12.4667V7.66667H1L5.66667 3L10.3333 7.66667H7.66667V12.4667C7.66667 12.6534 7.66667 12.7467 7.63034 12.818C7.59838 12.8807 7.54739 12.9317 7.48466 12.9637C7.41336 13 7.32002 13 7.13333 13H4.2Z" stroke="black" stroke-opacity="0.4" stroke-linecap="round" stroke-linejoin="round"/>
<path id="Vector 7" d="M16 7V11M18 9H14" stroke="black" stroke-opacity="0.4" stroke-linecap="round" stroke-linejoin="round"/>
<path id="S" d="M21.4785 12.1045L22.1074 11.291C22.4811 11.5781 22.8662 11.79 23.2627 11.9268C23.6592 12.0589 24.124 12.125 24.6572 12.125C25.2588 12.125 25.7487 11.9837 26.127 11.7012C26.5098 11.4186 26.7012 11.0107 26.7012 10.4775C26.7012 9.99447 26.5371 9.60938 26.209 9.32227C25.8809 9.0306 25.3499 8.75488 24.6162 8.49512C23.6865 8.17155 23.0007 7.80241 22.5586 7.3877C22.1165 6.96842 21.8955 6.41471 21.8955 5.72656C21.8955 4.91536 22.1849 4.26367 22.7637 3.77148C23.347 3.2793 24.099 3.0332 25.0195 3.0332C25.4844 3.0332 25.9333 3.09473 26.3662 3.21777C26.7992 3.34082 27.2298 3.53678 27.6582 3.80566L27.1455 4.66016C26.7946 4.45052 26.4437 4.30013 26.0928 4.20898C25.7419 4.11328 25.359 4.06543 24.9443 4.06543C24.3564 4.06543 23.8916 4.20443 23.5498 4.48242C23.2126 4.75586 23.0439 5.13411 23.0439 5.61719C23.0439 6.05013 23.1989 6.39421 23.5088 6.64941C23.8187 6.90462 24.3405 7.15983 25.0742 7.41504C26.0677 7.75684 26.7786 8.14876 27.207 8.59082C27.6354 9.03288 27.8496 9.6276 27.8496 10.375C27.8496 11.168 27.5648 11.8311 26.9951 12.3643C26.4255 12.8975 25.6257 13.1641 24.5957 13.1641C23.9759 13.1641 23.4154 13.0775 22.9141 12.9043C22.4128 12.7311 21.9342 12.4645 21.4785 12.1045Z" fill="black" fill-opacity="0.4"/>
</g>
</g>
</g>
</g>
</g>
</g>
</svg>
