<svg width="24" height="24" viewBox="0 0 24 24" fill="none" xmlns="http://www.w3.org/2000/svg">
<g id="Icon=dots-horizontal">
<g id="Icon">
<path d="M12 13.5C12.6904 13.5 13.25 12.9404 13.25 12.25C13.25 11.5596 12.6904 11 12 11C11.3097 11 10.75 11.5596 10.75 12.25C10.75 12.9404 11.3097 13.5 12 13.5Z" fill="black"/>
<path d="M20 13.5C20.6904 13.5 21.25 12.9404 21.25 12.25C21.25 11.5596 20.6904 11 20 11C19.3096 11 18.75 11.5596 18.75 12.25C18.75 12.9404 19.3096 13.5 20 13.5Z" fill="black"/>
<path d="M4 13.5C4.69036 13.5 5.25 12.9404 5.25 12.25C5.25 11.5596 4.69036 11 4 11C3.30964 11 2.75 11.5596 2.75 12.25C2.75 12.9404 3.30964 13.5 4 13.5Z" fill="black"/>
</g>
</g>
</svg>
