<svg width="24" height="24" viewBox="0 0 24 24" fill="none" xmlns="http://www.w3.org/2000/svg">
<g id="Icon=bell-02">
<rect id="Rectangle 16" x="14.3999" width="9.6" height="9.6" rx="4.8" fill="#D71920"/>
<path id="Subtract" fill-rule="evenodd" clip-rule="evenodd" d="M18.0171 12.5109C18.3215 13.4735 18.7083 14.2748 19.1194 14.9356C19.4894 15.5302 19.7579 15.9619 19.9333 16.2661C19.9529 16.3003 19.971 16.332 19.9875 16.3616L19.9489 16.3632C19.6485 16.3749 19.2149 16.375 18.6109 16.375H5.38861C4.78457 16.375 4.35098 16.3749 4.05056 16.3632L4.01198 16.3616C4.0285 16.332 4.04656 16.3003 4.06624 16.2661C4.24159 15.9619 4.51007 15.5302 4.88007 14.9356C5.81552 13.4323 6.62475 11.2011 6.62475 8C6.62475 6.57446 7.19104 5.20731 8.19905 4.1993C9.13733 3.26103 10.3868 2.70547 11.7048 2.63309C11.8305 2.19778 11.993 1.77811 12.1888 1.3777C12.1259 1.3759 12.0629 1.375 11.9998 1.375C10.2427 1.375 8.5576 2.07299 7.31517 3.31542C6.07274 4.55785 5.37475 6.24294 5.37475 8C5.37475 10.9792 4.62492 12.9796 3.81876 14.2752L3.8111 14.2875C3.45026 14.8674 3.17048 15.3171 2.98324 15.6419C2.88949 15.8046 2.80981 15.9515 2.75307 16.0765C2.72474 16.1389 2.69623 16.2085 2.67486 16.2803C2.65647 16.342 2.62712 16.4568 2.63816 16.5917C2.64794 16.7114 2.6704 16.8811 2.76545 17.0522C2.8605 17.2233 2.99272 17.332 3.08917 17.4035C3.26053 17.5307 3.46675 17.5631 3.55879 17.5767C3.68596 17.5956 3.83723 17.6058 4.00188 17.6122C4.32972 17.625 4.78786 17.625 5.3723 17.625H5.37235H5.38861H18.6109H18.6271H18.6272C19.2116 17.625 19.6698 17.625 19.9976 17.6122C20.1623 17.6058 20.3135 17.5956 20.4407 17.5767C20.5328 17.5631 20.739 17.5307 20.9103 17.4035C21.0068 17.332 21.139 17.2233 21.2341 17.0522C21.3291 16.8811 21.3516 16.7114 21.3613 16.5917C21.3724 16.4568 21.343 16.342 21.3246 16.2803C21.3033 16.2085 21.2748 16.1389 21.2464 16.0765C21.1897 15.9516 21.11 15.8046 21.0163 15.6419C20.829 15.3171 20.5493 14.8675 20.1885 14.2877L20.1885 14.2877L20.1807 14.2752C19.8918 13.8109 19.6102 13.2561 19.3677 12.5982C19.3119 12.5994 19.256 12.6 19.1999 12.6C18.7978 12.6 18.4028 12.5696 18.0171 12.5109ZM20.2994 16.3321C20.2991 16.332 20.2951 16.3328 20.2881 16.3349C20.2917 16.3342 20.2943 16.3336 20.2962 16.3331C20.2985 16.3325 20.2995 16.3321 20.2994 16.3321ZM3.70014 16.3321C3.7004 16.332 3.70442 16.3328 3.71143 16.3349C3.70339 16.3333 3.69988 16.3322 3.70014 16.3321ZM9.76751 20.5314C9.50872 20.303 9.11376 20.3276 8.88534 20.5864C8.65692 20.8452 8.68155 21.2402 8.94034 21.4686C9.75528 22.1879 10.8272 22.625 11.9998 22.625C13.1723 22.625 14.2442 22.1879 15.0592 21.4686C15.318 21.2402 15.3426 20.8452 15.1142 20.5864C14.8857 20.3276 14.4908 20.303 14.232 20.5314C13.6367 21.0569 12.8561 21.375 11.9998 21.375C11.1434 21.375 10.3628 21.0569 9.76751 20.5314Z" fill="black"/>
</g>
</svg>
